<?xml version="1.0" encoding="UTF-8"?>
<svg version="1.1" xmlns="http://www.w3.org/2000/svg" width="500" height="500">
<path d="M0 0 C165 0 330 0 500 0 C500 165 500 330 500 500 C335 500 170 500 0 500 C0 335 0 170 0 0 Z " fill="#FEFEFE" transform="translate(0,0)"/>
<path d="M0 0 C9.30141991 4.03409897 15.86878087 14.29190183 22 22 C22.9598152 23.18190188 23.92080886 24.36284745 24.8828125 25.54296875 C31.59455266 33.8047369 37.95027282 42.24290916 44 51 C44.58249512 51.83289551 44.58249512 51.83289551 45.17675781 52.68261719 C62.48248606 77.49756418 77.08168245 104.39847626 87 133 C87.37463379 134.07822021 87.37463379 134.07822021 87.75683594 135.17822266 C93.111354 150.84445824 97.11003225 167.10098672 97.203125 183.71484375 C97.20882507 184.52885147 97.21452515 185.34285919 97.22039795 186.18153381 C97.22979096 187.89843471 97.23635907 189.61535317 97.24023438 191.33227539 C97.2498579 193.89959149 97.28090156 196.46607698 97.3125 199.03320312 C97.41357633 214.3961574 95.3555749 228.50100094 90.25 243.0625 C89.89856934 244.0841626 89.54713867 245.1058252 89.18505859 246.15844727 C79.74471363 273.16276889 64.92772438 296.60219323 46 318 C44.89591797 319.27037109 44.89591797 319.27037109 43.76953125 320.56640625 C34.29771609 331.31493238 24.24773961 341.13088074 13 350 C11.80883602 351.01655561 10.62060229 352.03657314 9.4375 353.0625 C7 355 7 355 5 355 C5.02996567 355.5425795 5.05993134 356.085159 5.09080505 356.6441803 C5.99634973 373.58273354 6.12060647 390.47808557 6.0625 407.4375 C6.05746801 410.03059808 6.05290815 412.62369712 6.04882812 415.21679688 C6.03797312 421.47788897 6.02080514 427.73893339 6 434 C2.7 434 -0.6 434 -4 434 C-4.18815296 403.1226518 -4.18815296 403.1226518 -3.5 391.0625 C-3.42106523 389.43363279 -3.34294678 387.80472583 -3.265625 386.17578125 C-3.13224608 383.39286296 -2.97277506 380.61666106 -2.77539062 377.83740234 C-1.33744286 364.77287696 -1.33744286 364.77287696 -5.1015625 352.734375 C-7.94253849 350.44558871 -10.80606928 348.75321229 -14 347 C-15.72916511 345.5482272 -17.4183708 344.04741572 -19.0625 342.5 C-21.49933558 340.27422892 -23.93526576 338.05629064 -26.42578125 335.890625 C-37.98609774 325.78687151 -47.80547551 314.2580863 -57 302 C-57.61230469 301.18402344 -58.22460938 300.36804688 -58.85546875 299.52734375 C-87.24510507 260.21342932 -101.17325907 214.11045189 -93.54858398 165.65332031 C-90.27595081 147.45812332 -84.48605312 129.86965796 -77 113 C-76.61392578 112.12230957 -76.22785156 111.24461914 -75.83007812 110.34033203 C-65.68537102 87.54720411 -52.90978256 65.99528979 -38 46 C-36.96980302 44.60044372 -35.93985971 43.20070067 -34.91015625 41.80078125 C-29.15642619 34.01914162 -23.24155682 26.3989316 -17 19 C-16.51466797 18.42443359 -16.02933594 17.84886719 -15.52929688 17.25585938 C-13.94026666 15.3754085 -12.34632297 13.49926292 -10.75 11.625 C-10.25435547 11.04153809 -9.75871094 10.45807617 -9.24804688 9.85693359 C-6.29844922 6.41606715 -3.2461034 3.16317375 0 0 Z " fill="#B9FB63" transform="translate(249,33)"/>
<path d="M0 0 C0 118.14 0 236.28 0 358 C-7.88046958 353.49687452 -7.88046958 353.49687452 -10.4375 351.2578125 C-11.0147583 350.75620605 -11.5920166 350.25459961 -12.18676758 349.73779297 C-12.78513428 349.20557129 -13.38350098 348.67334961 -14 348.125 C-14.96232544 347.27832764 -14.96232544 347.27832764 -15.9440918 346.41455078 C-55.40724379 311.5016977 -92.210507 264.71736047 -96 210 C-97.29192536 175.65071664 -92.01388653 144.57998864 -78 113 C-77.61392578 112.12230957 -77.22785156 111.24461914 -76.83007812 110.34033203 C-66.68537102 87.54720411 -53.90978256 65.99528979 -39 46 C-37.96980302 44.60044372 -36.93985971 43.20070067 -35.91015625 41.80078125 C-30.15642619 34.01914162 -24.24155682 26.3989316 -18 19 C-17.51466797 18.42443359 -17.02933594 17.84886719 -16.52929688 17.25585938 C-14.94026666 15.3754085 -13.34632297 13.49926292 -11.75 11.625 C-11.25435547 11.04153809 -10.75871094 10.45807617 -10.24804688 9.85693359 C-1.79843435 0 -1.79843435 0 0 0 Z " fill="#AAE85B" transform="translate(250,33)"/>
</svg>
